<?xml version="1.0" standalone="no"?>
<!DOCTYPE svg PUBLIC "-//W3C//DTD SVG 20010904//EN"
 "http://www.w3.org/TR/2001/REC-SVG-20010904/DTD/svg10.dtd">
<svg version="1.0" xmlns="http://www.w3.org/2000/svg"
 width="700.000000pt" height="700.000000pt" viewBox="0 0 700.000000 700.000000"
 preserveAspectRatio="xMidYMid meet">
<metadata>
Created by potrace 1.11, written by Peter Selinger 2001-2013
</metadata>
<g transform="translate(0.000000,700.000000) scale(0.100000,-0.100000)"
fill="#000000" stroke="none">
<path d="M550 3480 l0 -2980 710 0 710 0 4 23 c3 12 39 370 81 796 l76 774 0
531 -1 531 338 -565 c185 -311 542 -908 792 -1327 l455 -763 1065 3 1065 2
302 815 302 815 1 2163 0 2162 -795 0 -794 0 -14 -47 c-8 -27 -107 -336 -221
-688 l-206 -640 6 -365 c5 -354 5 -364 -13 -344 -10 11 -344 485 -742 1052
l-725 1032 -1198 0 -1198 0 0 -2980z m2324 2788 c13 -18 484 -688 1046 -1488
l1022 -1455 59 -3 59 -3 -1 383 c0 211 -6 878 -13 1483 -7 605 -9 1103 -6
1108 3 4 283 6 621 5 l614 -3 3 -1997 2 -1998 -1058 0 -1059 0 -1049 1489
-1049 1490 -62 0 -63 1 0 -262 c0 -230 14 -1789 23 -2475 l3 -243 -623 0 -623
0 0 1993 c0 1097 3 1997 7 2000 3 4 482 7 1064 7 l1058 0 25 -32z"/>
</g>
</svg>
