<svg xmlns="http://www.w3.org/2000/svg" viewBox="0 0 580 287"><defs><style>.cls-1{fill:#595a5b;}.cls-2,.cls-9{fill:#fff;}.cls-3{font-size:20.31px;}.cls-11,.cls-3{font-family:MicrogrammaD-BoldExte, Microgramma D Extended;}.cls-11,.cls-12,.cls-3,.cls-6,.cls-9{font-weight:700;}.cls-4{letter-spacing:0em;}.cls-5{letter-spacing:0em;}.cls-6,.cls-9{font-size:18px;font-family:HelveticaNeue-Bold, Helvetica Neue;}.cls-7{letter-spacing:-0.09em;}.cls-8{letter-spacing:0em;}.cls-10,.cls-11,.cls-12{isolation:isolate;}.cls-11{font-size:46.28px;}.cls-11,.cls-14,.cls-15{fill:none;stroke:#000;}.cls-11,.cls-15{stroke-miterlimit:10;}.cls-12{font-size:15.56px;font-family:Helvetica-Bold, Helvetica;}.cls-13{letter-spacing:-0.01em;}</style></defs><title>Artboard 1</title><g id="Layer_15" data-name="Layer 15"><rect class="cls-1" width="580" height="287"/></g><g id="Layer_14" data-name="Layer 14"><path d="M297.59,138.19c0-4.77-.68-8.53-3.7-11.12l2-1.9.14-1.9c.05-.58.07-1.27.07-2,0-5.54-1.25-8.64-4.31-10.71-3.28-2.23-7.6-2.85-20.07-2.85l-4.27,0,.9-1V92.21H239.55V62H173.44L170.8,67.7a9.31,9.31,0,0,0-1-1.41c-3.17-3.81-8.76-4.92-24.93-4.92-13.85,0-20.84.33-25.08,3.4a10.55,10.55,0,0,0-3.95,6.06l0,0-1.77,6.44V62H97l-1.54,7.43V62H78.7L70.43,77.31,59.66,62H34.87V181.92H75.12l3.48-17.81,3.65,4.12v13.69H97.41V168.2l16.49-19.46h0l.08,0c-1.2,2.93-1.49,7.08-1.49,13.29,0,10,.6,14.69,4.28,17.52,3.36,2.56,7.41,2.84,22,2.84,14.39,0,18.41-.28,21.76-2.84a8.29,8.29,0,0,0,2-2.22h0l.56-.86v5.39h15l8.37-11.11,7.83,11.11H216l2.56-2.67a10.17,10.17,0,0,0,1.12.83c2.87,1.83,7.07,2.36,18.71,2.36,11,0,15.32-.28,17.71-1.18a9.55,9.55,0,0,0,2.5-1.42l0,0,34.93-29.52h0C297,147.38,297.59,142.65,297.59,138.19Z"/><path class="cls-2" d="M58.59,64,79.81,94.27h1.28L80.79,64H93.38v40.57H71.91L50.56,74.32H49.22l.3,30.29H36.93V64Z"/><path class="cls-2" d="M112,64v40.57H99V64Z"/><path class="cls-2" d="M170.57,81.62v1.09c0,4-.24,11-.43,12.9-.48,4.74-3.1,7.54-8,8.51-4.14.85-8.4,1.1-19.41,1.1-13.93,0-18.24-.55-21.65-2.86-3.59-2.37-4.26-5.35-4.26-18.67,0-19,1.77-20.26,28-20.26,15.09,0,20.68,1,23.36,4.2,1.7,2,2.19,4.5,2.25,10.46H158.16c-.06-2.37-.18-2.86-1-3.41-1.22-.85-4.08-1.09-13.32-1.09-14.6,0-14.66.06-14.66,10.58,0,6.88.36,8.94,1.7,10,1,.85,2.13,1,5.6,1.15l7.24.13c14.41,0,14.78-.13,14.78-4.63V89.71H142.29V81.62Z"/><path class="cls-2" d="M220.39,64v9.55H187.67v5.9h31.08v8.94H187.67v6.45h33v9.73H175.5V64Z"/><path class="cls-2" d="M237.49,64V94.27h28.83v10.34H224.53V64Z"/><path class="cls-2" d="M49.89,110.33v30.23H78.72V150.9H36.93V110.33Z"/><path class="cls-2" d="M84.74,110.33l13.2,16.24,12.65-16.24h16.12l-22.2,26.22V150.9H91.74V136.55L68.5,110.33Z"/><path class="cls-2" d="M178.42,112.52c3.1,2.38,4,6.45,4,18.07s-.91,15.75-4,18.12-6.94,2.8-23.72,2.8c-17.1,0-20.87-.42-24-2.8s-4-6.44-4-18.37c0-11.31.91-15.44,4-17.82s6.87-2.79,23.84-2.79S175.32,110.15,178.42,112.52ZM140,122.8c-.73,1.4-1,3.71-1,8.88s.37,6.69,1.83,7.85c1.64,1.28,3.59,1.46,13.81,1.46,9.91,0,11.92-.24,13.56-1.46,1.4-1.09,1.83-2.86,1.83-7.79,0-6-.37-8.33-1.46-9.67-1.4-1.64-2.74-1.82-14.06-1.82C142.41,120.25,141.25,120.43,140,122.8Z"/><path class="cls-2" d="M206.9,110.33l21.23,30.23h1.28l-.31-30.23h12.59V150.9H220.22l-21.35-30.29h-1.33l.3,30.29H185.25V110.33Z"/><path class="cls-2" d="M257.88,137.46c0,2.43.24,3.23,1.21,3.83,1.16.73,2.5.86,11.2.86,13.26,0,13.26,0,13.26-3.59,0-2.44-.92-3-4.87-3.11l-9.73-.36-6.57-.3-3.29-.13c-10-.3-12.83-2.85-12.83-11.8,0-7.72,2.19-11.19,7.79-12.4,2.37-.49,8-.73,17.7-.73,11.8,0,16.05.54,18.91,2.49,2.44,1.64,3.41,4.2,3.41,9,0,.24,0,1.1-.06,1.89H282.09c-.13-2.25-.31-2.8-1.22-3.35s-2.56-.73-11.31-.73c-10.47,0-11.32.25-11.32,3.23,0,1.52.55,2.31,1.83,2.61,1.09.31,4.44.49,13,.73,13.39.43,16,.73,18.62,2.37,2.79,1.83,3.83,4.57,3.83,10.22,0,7.06-1.7,10.52-5.9,12.11-2.43.91-7.54,1.21-19.65,1.21-12.59,0-17.52-.54-20.37-2.37s-3.71-4.14-3.71-9.73v-1.95Z"/><text class="cls-3" transform="translate(34.81 54.13)">VIDEO P<tspan class="cls-4" x="103.84" y="0">R</tspan><tspan class="cls-5" x="122.2" y="0">ODUCTION</tspan></text><text class="cls-6" transform="translate(445.45 116)">DIRECTION<tspan x="-22.37" y="21.6">PRODUCTION</tspan><tspan x="-71.69" y="43.2">CINEM</tspan><tspan class="cls-7" x="-11.72" y="43.2">A</tspan><tspan class="cls-8" x="-1.04" y="43.2">TOGRAPHY</tspan><tspan x="26.68" y="64.8">EDITING</tspan></text><text class="cls-9" transform="translate(34.81 229.02)">nigel@nigelyons.com<tspan x="0" y="21.6">614.560.4887</tspan></text><g id="layer1"><g id="text24" class="cls-10"><text class="cls-11" transform="translate(385.85 276.65)">4K</text></g><g id="text28" class="cls-10"><text class="cls-12" transform="translate(480.93 257.07)">Anamorphic</text><text class="cls-12" transform="translate(480.93 276.33)"><tspan class="cls-13">W</tspan><tspan x="14.55" y="0">idescreen</tspan></text></g><path id="path36" class="cls-14" d="M476.36,245.46V276.7"/></g><polygon class="cls-15" points="581.01 286.89 374.52 286.89 374.52 251.69 396.52 235.72 581.01 235.72 581.01 286.89"/></g></svg>