<svg width="20" height="20" viewBox="0 0 20 20" fill="currentColor" xmlns="http://www.w3.org/2000/svg">
<path fill-rule="evenodd" clip-rule="evenodd" d="M12.3864 2.36199L11.7562 0.153705C11.1861 0.0526955 10.5992 0 10 0C9.40087 0 8.81402 0.0526939 8.24386 0.1537L7.61364 2.36197C6.47161 2.71841 5.43952 3.32391 4.58094 4.11491L2.35257 3.55634C1.59913 4.44961 0.999359 5.47672 0.593997 6.59691L2.19245 8.248C2.06648 8.81185 2.00002 9.39816 2.00002 10C2.00002 10.6018 2.06648 11.1881 2.19245 11.752L0.593994 13.4031C0.999355 14.5233 1.59913 15.5504 2.35256 16.4437L4.58094 15.8851C5.43952 16.6761 6.47161 17.2816 7.61364 17.638L8.24386 19.8463C8.81402 19.9473 9.40087 20 10 20C10.5992 20 11.1861 19.9473 11.7562 19.8463L12.3864 17.638C13.5285 17.2816 14.5605 16.6761 15.4191 15.8851L17.6475 16.4436C18.4009 15.5504 19.0007 14.5233 19.4061 13.4031L17.8076 11.752C17.9336 11.1881 18 10.6018 18 10C18 9.39818 17.9336 8.81188 17.8076 8.24804L19.4061 6.59693C19.0007 5.47674 18.4009 4.44962 17.6475 3.55635L15.4191 4.11492C14.5605 3.32393 13.5285 2.71843 12.3864 2.36199ZM9.99922 13C11.6561 13 12.9992 11.6568 12.9992 10C12.9992 8.34314 11.6561 7 9.99922 7C8.34237 7 6.99922 8.34314 6.99922 10C6.99922 11.6568 8.34237 13 9.99922 13Z" fill="#ECECEC"/>
</svg>
