<?xml version="1.0" encoding="UTF-8" standalone="no"?>
<svg
   xmlns:dc="http://purl.org/dc/elements/1.1/"
   xmlns:cc="http://creativecommons.org/ns#"
   xmlns:rdf="http://www.w3.org/1999/02/22-rdf-syntax-ns#"
   xmlns:svg="http://www.w3.org/2000/svg"
   xmlns="http://www.w3.org/2000/svg"
   xmlns:sodipodi="http://sodipodi.sourceforge.net/DTD/sodipodi-0.dtd"
   xmlns:inkscape="http://www.inkscape.org/namespaces/inkscape"
   class="logo"
   aria-labelledby="logo-title logo-desc"
   role="img"
   viewBox="0 0 500 230.39"
   version="1.1"
   id="svg106"
   sodipodi:docname="nigelyons-logo.svg"
   width="500"
   height="230.39"
   inkscape:version="0.92.2 5c3e80d, 2017-08-06">
  <metadata
     id="metadata110">
    <rdf:RDF>
      <cc:Work
         rdf:about="">
        <dc:format>image/svg+xml</dc:format>
        <dc:type
           rdf:resource="http://purl.org/dc/dcmitype/StillImage" />
        <dc:title>Nigel Lyons</dc:title>
      </cc:Work>
    </rdf:RDF>
  </metadata>
  <sodipodi:namedview
     pagecolor="#ffffff"
     bordercolor="#666666"
     borderopacity="1"
     objecttolerance="10"
     gridtolerance="10"
     guidetolerance="10"
     inkscape:pageopacity="0"
     inkscape:pageshadow="2"
     inkscape:window-width="1423"
     inkscape:window-height="820"
     id="namedview108"
     showgrid="false"
     fit-margin-top="0"
     fit-margin-left="0"
     fit-margin-right="0"
     fit-margin-bottom="0"
     inkscape:zoom="2.044"
     inkscape:cx="42.074368"
     inkscape:cy="132.388"
     inkscape:window-x="0"
     inkscape:window-y="0"
     inkscape:window-maximized="0"
     inkscape:current-layer="svg106" />
  <title
     id="logo-title">Nigel Lyons</title>
  <desc
     id="logo-desc">NIGEL LYONS in bold text with a deep box shadow</desc>
  <defs
     id="defs94">
    <style
       id="style92">.cls-1{fill:#fff}</style>
  </defs>
  <path
     d="m 500,146.21 c 0,-9.09 -1.29,-16.24 -7,-21.17 l 3.85,-3.62 0.28,-3.62 c 0.09,-1.1 0.13,-2.41 0.13,-3.89 0,-10.54 -2.38,-16.45 -8.21,-20.39 -6.24,-4.25 -14.46,-5.41 -38.2,-5.41 h -8.11 l 1.7,-1.93 V 58.69 h -54.9 V 1.16 H 263.72 l -5,10.89 A 18.3,18.3 0 0 0 256.87,9.37 C 250.82,2.11 240.18,0 209.41,0 183.05,0 169.75,0.64 161.67,6.47 157.78,9.29 155.52,13.13 154.15,18 h -0.07 l -3.37,12.26 V 1.16 H 118.2 l -2.93,14.15 V 1.16 H 83.42 L 67.67,30.34 47.17,1.16 H 0 v 228.26 h 76.59 l 6.63,-33.88 7,7.83 v 26 H 119 v -26.1 l 31.37,-37 0.15,0.08 c -2.29,5.57 -2.83,13.46 -2.83,25.3 0,19.09 1.13,27.94 8.14,33.33 6.39,4.88 14.11,5.41 41.82,5.41 27.38,0 35,-0.53 41.41,-5.41 a 15.84,15.84 0 0 0 3.81,-4.23 l 1.08,-1.64 v 10.25 h 28.6 l 15.93,-21.13 14.89,21.13 h 41.29 l 4.87,-5.08 a 17.06,17.06 0 0 0 2.13,1.58 c 5.47,3.49 13.46,4.5 35.61,4.5 21,0 29.16,-0.54 33.7,-2.25 a 18.27,18.27 0 0 0 4.76,-2.7 h 0.09 l 66.5,-56.17 c 6.62,-5.54 7.68,-14.55 7.68,-23.03 z"
     id="path96"
     inkscape:connector-curvature="0"
     style="fill:#000000;fill-opacity:1"
     class="svg-fill--color__0" />
  <path
     style="fill:#ffffff"
     inkscape:connector-curvature="0"
     id="path98"
     class="cls-1 svg-fill--color__8"
     d="m 45.13,5.084 40.41,57.53 H 88 L 87.39,5.084 h 24 v 77.21 H 70.49 L 29.85,24.654 h -2.54 l 0.58,57.64 h -24 V 5.084 Z m 101.65,0 v 77.21 H 122.12 V 5.084 Z m 111.48,33.46 v 2.08 c 0,7.64 -0.46,20.84 -0.81,24.54 -0.93,9 -5.91,14.35 -15.17,16.21 -7.87,1.62 -16,2.08 -36.92,2.08 -26.51,0 -34.73,-1 -41.21,-5.44 -6.83,-4.51 -8.15,-10.19 -8.15,-35.54 0,-36.11 3.36,-38.55 53.37,-38.55 28.71,0 39.36,1.86 44.45,8 3.24,3.82 4.17,8.57 4.28,19.91 h -23.5 c -0.11,-4.51 -0.34,-5.44 -1.85,-6.48 -2.31,-1.62 -7.75,-2.08 -25.35,-2.08 -27.78,0 -27.9,0.11 -27.9,20.14 0,13.08 0.7,17 3.24,19.1 2,1.62 4.06,2 10.65,2.2 l 13.78,0.23 c 27.43,0 28.13,-0.23 28.13,-8.8 v -2.2 h -30.87 v -15.4 z m 94.81,-33.46 v 18.18 H 290.8 v 11.22 H 350 v 17 h -59.2 v 12.29 h 62.74 v 18.52 h -85.9 V 5.084 Z m 32.54,0 v 57.53 h 54.87 v 19.68 H 361 V 5.084 Z M 28.58,93.19 v 57.53 H 83.45 V 170.4 H 3.92 V 93.19 Z m 66.34,0 25.08,30.91 24.07,-30.91 h 30.68 L 132.5,143.08 V 170.4 H 108.23 V 143.08 L 64,93.19 Z m 178.28,4.17 c 5.9,4.51 7.64,12.27 7.64,34.38 0,22.11 -1.74,30 -7.64,34.49 -5.9,4.49 -13.2,5.33 -45.15,5.33 -32.53,0 -39.71,-0.81 -45.61,-5.33 -5.9,-4.52 -7.64,-12.27 -7.64,-35 0,-21.53 1.74,-29.4 7.64,-33.91 5.9,-4.51 13.08,-5.32 45.38,-5.32 32.3,0 39.47,0.84 45.38,5.36 z m -73,19.56 c -1.39,2.66 -1.85,7.06 -1.85,16.9 0,9.61 0.69,12.73 3.47,14.93 3.13,2.43 6.83,2.78 26.28,2.78 18.87,0 22.69,-0.46 25.81,-2.78 2.67,-2.08 3.48,-5.44 3.48,-14.81 0,-11.46 -0.7,-15.86 -2.78,-18.41 -2.66,-3.13 -5.21,-3.47 -26.74,-3.47 -23.2,0 -25.4,0.34 -27.72,4.86 z m 127.21,-23.73 40.4,57.53 h 2.43 l -0.58,-57.53 h 24 v 77.21 h -40.9 l -40.63,-57.65 h -2.55 l 0.58,57.65 h -24 V 93.19 Z m 97.01,51.63 c 0,4.63 0.46,6.13 2.32,7.29 2.2,1.39 4.74,1.62 21.3,1.62 25.23,0 25.23,0 25.23,-6.83 0,-4.63 -1.73,-5.79 -9.26,-5.9 l -18.52,-0.7 -12.5,-0.58 -6.25,-0.23 c -19.1,-0.58 -24.43,-5.44 -24.43,-22.45 0,-14.71 4.17,-21.3 14.82,-23.62 4.51,-0.93 15.16,-1.39 33.68,-1.39 22.46,0 30.56,1 36,4.75 4.63,3.12 6.48,8 6.48,17.13 0,0.46 0,2.08 -0.12,3.59 h -22.68 c -0.23,-4.29 -0.57,-5.33 -2.31,-6.37 -2,-1.16 -4.86,-1.39 -21.53,-1.39 -19.91,0 -21.53,0.47 -21.53,6.14 0,2.89 1,4.4 3.47,5 2.08,0.57 8.45,0.92 24.77,1.39 25.47,0.8 30.45,1.38 35.42,4.51 5.33,3.47 7.3,8.68 7.3,19.45 0,13.42 -3.24,20 -11.23,23 -4.63,1.74 -14.36,2.32 -37.39,2.32 -24,0 -33.34,-1 -38.78,-4.52 -5.44,-3.52 -7.06,-7.87 -7.06,-18.52 v -3.7 z" />
</svg>
