<svg viewBox="0 0 20 20"><path fill-rule="evenodd" clip-rule="evenodd" d="M12.386 2.362l-.63-2.208a10.06 10.06 0 0 0-3.512 0l-.63 2.208A7.991 7.991 0 0 0 4.58 4.115l-2.228-.559a9.99 9.99 0 0 0-1.759 3.04l1.598 1.652a8.028 8.028 0 0 0 0 3.504L.594 13.403a9.99 9.99 0 0 0 1.759 3.04l2.228-.558a7.99 7.99 0 0 0 3.033 1.753l.63 2.208a10.062 10.062 0 0 0 3.512 0l.63-2.208a7.99 7.99 0 0 0 3.033-1.753l2.229.559a9.99 9.99 0 0 0 1.758-3.04l-1.598-1.652a8.027 8.027 0 0 0 0-3.504l1.598-1.651a9.99 9.99 0 0 0-1.758-3.04l-2.229.558a7.991 7.991 0 0 0-3.033-1.753zM10 13a3 3 0 1 0 0-6 3 3 0 0 0 0 6z"/></svg>